<svg id="Layer_1" data-name="Layer 1" xmlns="http://www.w3.org/2000/svg" viewBox="0 0 900 600"><defs><style>.cls-1{font-size:22.56px;font-family:GDSTransportWebsite, GDS Transport Website;}.cls-2{letter-spacing:-0.01em;}.cls-3{letter-spacing:-0.01em;}.cls-4{letter-spacing:-0.02em;}.cls-5{letter-spacing:0em;}.cls-6{letter-spacing:0em;}.cls-7{letter-spacing:-0.04em;}.cls-8{letter-spacing:-0.01em;}.cls-9{fill:none;stroke:#000;stroke-linecap:round;stroke-linejoin:round;stroke-width:5px;}.cls-10{letter-spacing:-0.01em;}.cls-11{letter-spacing:-0.02em;}.cls-12{letter-spacing:0em;}.cls-13{letter-spacing:-0.03em;}.cls-14{letter-spacing:-0.01em;}.cls-15{letter-spacing:-0.01em;}.cls-16{letter-spacing:-0.03em;}.cls-17{letter-spacing:-0.08em;}</style></defs><title>codelabs</title><path d="M267.36,41V188.59H41V41H267.36m5-5H36V193.59H272.36V36Z"/><path d="M429.76,226.72v27H333.3v-27h96.46m5-5H328.3v37H434.76v-37Z"/><text class="cls-1" transform="translate(35.79 357.46)"><tspan class="cls-2">I</tspan><tspan x="6.11" y="0">mages</tspan></text><text class="cls-1" transform="translate(327.85 146.16)"><tspan class="cls-3">P</tspan><tspan x="13.19" y="0">aragraph</tspan><tspan class="cls-4" x="100.26" y="0"> </tspan><tspan x="104.32" y="0">t</tspan><tspan class="cls-5" x="112.65" y="0">e</tspan><tspan x="124.35" y="0">xt</tspan></text><text class="cls-1" transform="translate(327.85 289.47)"><tspan class="cls-5">B<tspan class="cls-6" x="14.61" y="0">utton</tspan></tspan><tspan class="cls-7" x="0" y="27.07">(</tspan><tspan class="cls-6" x="7.9" y="27.07">with</tspan><tspan class="cls-4" x="49.78" y="27.07"> </tspan><tspan x="53.84" y="27.07">t</tspan><tspan class="cls-5" x="62.17" y="27.07">e</tspan><tspan class="cls-6" x="73.88" y="27.07">xt)</tspan></text><text class="cls-1" transform="translate(327.85 507.47)"><tspan class="cls-8">R</tspan><tspan x="13.92" y="0">adio buttons</tspan></text><line class="cls-9" x1="266.73" y1="39.61" x2="42.51" y2="189.38"/><line class="cls-9" x1="42.51" y1="39.61" x2="266.73" y2="189.38"/><line class="cls-9" x1="126.8" y1="232.14" x2="57.77" y2="305.84"/><line class="cls-9" x1="57.77" y1="232.14" x2="126.8" y2="305.84"/><path d="M854.81,41.1V188.69H628.42V41.1H854.81m5-5H623.42V193.69H859.81V36.1Z"/><text class="cls-1" transform="translate(623.42 228.46)">Video</text><text class="cls-1" transform="translate(623.42 330.46)"><tspan class="cls-10">M</tspan><tspan x="18.79" y="0">enu</tspan><tspan class="cls-11" x="0" y="27.07">(</tspan><tspan class="cls-12" x="8.19" y="27.07">3 item</tspan><tspan class="cls-13" x="69.96" y="27.07">s</tspan><tspan x="79.73" y="27.07">)</tspan></text><rect x="38.48" y="474.25" width="192.59" height="21.77"/><path d="M228.57,476.76v16.77H41V476.76H228.57m5-5H36v26.77H233.57V471.76Z"/><rect x="38.48" y="415.61" width="231.38" height="34.4"/><path d="M267.36,418.11v29.4H41v-29.4H267.36m5-5H36v39.4H272.36v-39.4Z"/><text class="cls-1" transform="translate(35.79 532.29)"><tspan class="cls-14">H</tspan><tspan x="16.28" y="0">eadlines</tspan><tspan class="cls-7" x="0" y="27.07">(</tspan><tspan class="cls-15" x="7.9" y="27.07">v</tspan><tspan x="18.44" y="27.07">arious si</tspan><tspan class="cls-5" x="98.03" y="27.07">z</tspan><tspan x="108.16" y="27.07">e</tspan><tspan class="cls-16" x="119.98" y="27.07">s</tspan><tspan x="129.75" y="27.07">)</tspan></text><line class="cls-9" x1="327.85" y1="40.06" x2="565.13" y2="40.06"/><line class="cls-9" x1="327.85" y1="56.3" x2="565.13" y2="56.3"/><line class="cls-9" x1="327.85" y1="72.54" x2="565.13" y2="72.54"/><line class="cls-9" x1="327.85" y1="88.78" x2="565.13" y2="88.78"/><line class="cls-9" x1="327.85" y1="105.02" x2="500.17" y2="105.02"/><line class="cls-9" x1="623.42" y1="289.02" x2="664.08" y2="289.02"/><line class="cls-9" x1="385.85" y1="393.02" x2="484.5" y2="393.02"/><line class="cls-9" x1="686.85" y1="289.02" x2="727.5" y2="289.02"/><line class="cls-9" x1="741.85" y1="289.02" x2="782.5" y2="289.02"/><line class="cls-9" x1="355.82" y1="240.21" x2="406.34" y2="240.21"/><path d="M724.89,438v16.71H628.42V438h96.46m5-5H623.42v26.71H729.89V433Z"/><text class="cls-1" transform="translate(623.42 496.47)"><tspan class="cls-17">T</tspan><tspan class="cls-5" x="9.97" y="0">e</tspan><tspan x="21.67" y="0">xt input</tspan><tspan class="cls-7"><tspan x="0" y="27.07">(</tspan><tspan class="cls-6" x="7.9" y="27.07">with label)</tspan></tspan></text><line class="cls-9" x1="623.42" y1="417.21" x2="673.95" y2="417.21"/><polygon class="cls-9" points="760.13 114.9 714.41 88.5 714.41 141.29 760.13 114.9"/><path d="M92,219a50,50,0,1,1-50,50,50.06,50.06,0,0,1,50-50m0-5a55,55,0,1,0,55,55,55,55,0,0,0-55-55Z"/><path d="M346.5,377A16.5,16.5,0,1,1,330,393.5,16.52,16.52,0,0,1,346.5,377m0-5A21.5,21.5,0,1,0,368,393.5,21.5,21.5,0,0,0,346.5,372Z"/><line class="cls-9" x1="385.85" y1="448.02" x2="484.5" y2="448.02"/><path d="M346.5,432A16.5,16.5,0,1,1,330,448.5,16.52,16.52,0,0,1,346.5,432m0-5A21.5,21.5,0,1,0,368,448.5,21.5,21.5,0,0,0,346.5,427Z"/><path d="M346.5,457.5a9,9,0,1,1,9-9A9,9,0,0,1,346.5,457.5Z"/><path d="M346.5,442a6.5,6.5,0,1,1-6.5,6.5,6.51,6.51,0,0,1,6.5-6.5m0-5A11.5,11.5,0,1,0,358,448.5,11.5,11.5,0,0,0,346.5,437Z"/></svg>