<?xml version="1.0" encoding="UTF-8"?>
<svg width="900px" height="600px" viewBox="0 0 900 600" version="1.1" xmlns="http://www.w3.org/2000/svg" xmlns:xlink="http://www.w3.org/1999/xlink">
    <!-- Generator: Sketch 51 (57462) - http://www.bohemiancoding.com/sketch -->
    <title>Group 2</title>
    <desc>Created with Sketch.</desc>
    <defs>
        <ellipse id="path-1" cx="189.373802" cy="166.322684" rx="189.373802" ry="166.322684"></ellipse>
        <ellipse id="path-3" cx="189" cy="166" rx="189" ry="166"></ellipse>
    </defs>
    <g id="Page-1" stroke="none" stroke-width="1" fill="none" fill-rule="evenodd">
        <g id="Artboard" transform="translate(-105.000000, -147.000000)">
            <g id="Group-2" transform="translate(105.000000, 147.000000)">
                <g id="Web-window">
                    <rect id="Rectangle" fill="#000000" fill-rule="nonzero" x="0" y="0.109375" width="705" height="421.890625"></rect>
                    <rect id="Rectangle-2" fill="#FFFFFF" fill-rule="nonzero" x="9.8372093" y="37.5110262" width="677.127907" height="369.528313"></rect>
                    <g id="window-buttons" transform="translate(11.476744, 12.077903)" fill="#FFFFFF" fill-rule="nonzero">
                        <ellipse id="Oval" cx="8.38685152" cy="8.22836325" rx="8.38685152" ry="8.22836325"></ellipse>
                        <ellipse id="Oval" cx="34.4302326" cy="8.22836325" rx="8.38685152" ry="8.22836325"></ellipse>
                        <ellipse id="Oval" cx="60.4736136" cy="8.22836325" rx="8.38685152" ry="8.22836325"></ellipse>
                    </g>
                    <g id="Mini-paragraph" transform="translate(73.779070, 190.180666)" fill="#D8D8D8" fill-rule="nonzero">
                        <rect id="Rectangle-3" x="0" y="0" width="84.9577167" height="15.4408792" rx="7.7204396"></rect>
                        <rect id="Rectangle-3-Copy" x="0" y="25.1930134" width="147.55814" height="15.4408792" rx="7.7204396"></rect>
                        <rect id="Rectangle-3-Copy-2" x="0" y="50.3860268" width="147.55814" height="15.4408792" rx="7.7204396"></rect>
                    </g>
                    <g id="Mini-paragraph-Copy-3" transform="translate(73.779070, 282.936761)" fill="#D8D8D8" fill-rule="nonzero">
                        <rect id="Rectangle-3" x="0" y="0" width="84.9577167" height="15.4408792" rx="7.7204396"></rect>
                        <rect id="Rectangle-3-Copy" x="0" y="25.1930134" width="147.55814" height="15.4408792" rx="7.7204396"></rect>
                        <rect id="Rectangle-3-Copy-2" x="0" y="50.3860268" width="147.55814" height="15.4408792" rx="7.7204396"></rect>
                    </g>
                    <g id="Mini-paragraph-Copy" transform="translate(278.720930, 190.180666)" fill="#D8D8D8" fill-rule="nonzero">
                        <rect id="Rectangle-3" x="0" y="0" width="84.9577167" height="15.4408792" rx="7.7204396"></rect>
                        <rect id="Rectangle-3-Copy" x="0" y="25.1930134" width="147.55814" height="15.4408792" rx="7.7204396"></rect>
                        <rect id="Rectangle-3-Copy-2" x="0" y="50.3860268" width="147.55814" height="15.4408792" rx="7.7204396"></rect>
                    </g>
                    <g id="Mini-paragraph-Copy-4" transform="translate(278.720930, 282.936761)" fill="#D8D8D8" fill-rule="nonzero">
                        <rect id="Rectangle-3" x="0" y="0" width="84.9577167" height="15.4408792" rx="7.7204396"></rect>
                        <rect id="Rectangle-3-Copy" x="0" y="25.1930134" width="147.55814" height="15.4408792" rx="7.7204396"></rect>
                        <rect id="Rectangle-3-Copy-2" x="0" y="50.3860268" width="147.55814" height="15.4408792" rx="7.7204396"></rect>
                    </g>
                    <g id="Mini-paragraph-Copy-2" transform="translate(485.302326, 160.188442)" fill="#D8D8D8" fill-rule="nonzero">
                        <rect id="Rectangle-3" x="0" y="0" width="84.9577167" height="15.4408792" rx="7.7204396"></rect>
                        <rect id="Rectangle-3-Copy" x="0" y="25.1930134" width="147.55814" height="15.4408792" rx="7.7204396"></rect>
                        <rect id="Rectangle-3-Copy-2" x="0" y="50.3860268" width="147.55814" height="15.4408792" rx="7.7204396"></rect>
                    </g>
                    <g id="Mini-paragraph-Copy-5" transform="translate(485.302326, 252.944537)" fill="#D8D8D8" fill-rule="nonzero">
                        <rect id="Rectangle-3" x="0" y="0" width="84.9577167" height="15.4408792" rx="7.7204396"></rect>
                        <rect id="Rectangle-3-Copy" x="0" y="25.1930134" width="147.55814" height="15.4408792" rx="7.7204396"></rect>
                        <rect id="Rectangle-3-Copy-2" x="0" y="50.3860268" width="147.55814" height="15.4408792" rx="7.7204396"></rect>
                    </g>
                    <rect id="Rectangle-4" fill="#015598" fill-rule="nonzero" x="9.8372093" y="37.5110262" width="677.127907" height="88.2678967"></rect>
                    <rect id="Rectangle-5" fill="#FFFFFF" fill-rule="nonzero" x="73.7790698" y="95.857602" width="267.244186" height="19.4488586"></rect>
                    <text id="GOV.UK" font-family="GDSTransportWebsite-Bold, GDS Transport Website" font-size="36" font-weight="bold" fill="#FFFFFF">
                        <tspan x="70.5" y="79.9275431">GOV.UK</tspan>
                    </text>
                    <g id="Website-Header" transform="translate(10.000000, 38.000000)">
                        <rect id="Rectangle-4" fill="#015598" fill-rule="nonzero" x="0" y="0" width="677" height="112"></rect>
                        <g id="Header-elements" transform="translate(65.000000, 9.000000)">
                            <rect id="Rectangle-5" fill="#FFFFFF" fill-rule="nonzero" x="110.258818" y="61" width="300.705867" height="24"></rect>
                            <text id="GOV.UK" font-family="GDSTransportWebsite-Bold, GDS Transport Website" font-size="48" font-weight="bold" fill="#FFFFFF">
                                <tspan x="109.256465" y="46">GOV.UK</tspan>
                            </text>
                            <g id="Magnify-icon" transform="translate(394.927039, 59.000000)" fill-rule="nonzero">
                                <rect id="Rectangle-9" fill="#000000" x="0" y="0" width="32.0752925" height="28"></rect>
                                <rect id="Rectangle-10" fill="#FFFFFF" transform="translate(21.642344, 19.426238) rotate(40.000000) translate(-21.642344, -19.426238) " x="14.5426014" y="17.5603097" width="14.1994853" height="3.73185709"></rect>
                                <g id="Group" transform="translate(5.011764, 4.000000)">
                                    <ellipse id="Oval-2" fill="#FFFFFF" cx="8.01882312" cy="8" rx="8.01882312" ry="8"></ellipse>
                                    <ellipse id="Oval-2-Copy" fill="#000000" cx="8.01882312" cy="8" rx="6.01411734" ry="6"></ellipse>
                                </g>
                            </g>
                            <g id="Group-2" fill-rule="nonzero">
                                <ellipse id="Oval-2" fill="#000000" cx="44.1035271" cy="44" rx="44.1035271" ry="44"></ellipse>
                                <g id="GovUK_logo" transform="translate(9.021176, 15.000000)" fill="#FFFFFF">
                                    <path d="M13.4701722,16.04375 C15.3568261,16.840625 17.6208108,15.9375 18.3754724,14.078125 C19.1840384,12.165625 18.2676636,9.934375 16.2732009,9.190625 C14.3326425,8.446875 12.1764666,9.35 11.3679006,11.2625 C10.6132391,13.121875 11.5296138,15.246875 13.4701722,16.04375 Z M4.84546843,20.984375 C6.78602677,21.78125 9.0500115,20.878125 9.80467308,19.01875 C10.6132391,17.10625 9.69686428,14.875 7.70240154,14.184375 C5.7618432,13.3875 3.60566727,14.290625 2.79710129,16.203125 C2.04243972,18.0625 2.95881449,20.1875 4.84546843,20.984375 Z M2.36586611,30.3875 C4.25252005,31.184375 6.51650478,30.28125 7.27116636,28.36875 C8.07973233,26.45625 7.16335756,24.278125 5.16889482,23.534375 C3.28224088,22.7375 1.07216055,23.69375 0.26359457,25.553125 C-0.491067007,27.4125 0.425307765,29.590625 2.36586611,30.3875 Z M23.0112507,19.01875 C24.8979046,19.815625 27.1618893,18.9125 27.9165509,17 C28.7251169,15.0875 27.8087421,12.909375 25.8142794,12.165625 C23.873721,11.36875 21.7175451,12.325 20.9089791,14.184375 C20.208222,16.096875 21.1245967,18.275 23.0112507,19.01875 Z M57.7256832,16.04375 C55.7851249,16.840625 53.5211401,15.9375 52.820383,14.078125 C52.011817,12.165625 52.9281918,9.934375 54.8687501,9.190625 C56.8093084,8.446875 59.0193888,9.35 59.8279547,11.2625 C60.5287119,13.121875 59.6123372,15.246875 57.7256832,16.04375 Z M66.2964826,20.984375 C64.3559242,21.78125 62.1458439,20.878125 61.3911823,19.01875 C60.5826163,17.10625 61.4989911,14.875 63.385645,14.184375 C65.3262034,13.3875 67.5362837,14.290625 68.3448497,16.203125 C69.1534157,18.0625 68.1831365,20.1875 66.2964826,20.984375 Z M68.8299893,30.3875 C66.8894309,31.184375 64.6254462,30.28125 63.8707846,28.36875 C63.0622187,26.45625 63.9785934,24.278125 65.9730562,23.534375 C67.9136145,22.7375 70.1236948,23.69375 70.9322608,25.553125 C71.633018,27.4125 70.7166432,29.590625 68.8299893,30.3875 Z M48.1307003,19.01875 C46.190142,19.815625 43.9261572,18.9125 43.1714957,17 C42.4168341,15.0875 43.2793045,12.909375 45.2737672,12.165625 C47.2143255,11.36875 49.4244059,12.325 50.2329718,14.184375 C50.9876334,16.096875 50.0712586,18.275 48.1307003,19.01875 Z M37.5654382,9.403125 L42.3629297,11.9 L42.3629297,4.940625 L37.5654382,6.428125 C37.4576294,6.26875 37.2959162,6.109375 37.0802986,5.95 L39.020857,0 L35.5709755,0 L32.121094,0 L34.0077479,5.95 C33.8460347,6.109375 33.6843215,6.215625 33.5226084,6.428125 L28.7790213,4.940625 L28.7790213,11.9 L33.5226084,9.403125 C33.6843215,9.5625 33.8460347,9.775 34.0077479,9.88125 L31.312528,18.0625 C31.312528,18.0625 31.312528,18.0625 31.312528,18.115625 C31.2047192,18.540625 31.0969104,18.965625 31.0969104,19.390625 C31.0969104,21.56875 32.7679468,23.375 34.8702183,23.69375 L34.9780271,23.69375 C35.1397403,23.69375 35.3553579,23.746875 35.5170711,23.746875 C35.7326887,23.746875 35.8944019,23.746875 36.0561151,23.69375 L36.1639239,23.69375 C38.3200998,23.375 39.9911362,21.515625 39.9911362,19.390625 C39.9911362,18.965625 39.9372318,18.4875 39.7755186,18.115625 C39.7755186,18.115625 39.7755186,18.115625 39.7755186,18.0625 L37.0263942,9.88125 C37.2420118,9.775 37.403725,9.5625 37.5654382,9.403125 Z M35.5709755,49.3 C44.6808188,49.3 53.2516182,49.884375 60.9599471,51 C63.116123,42.021875 65.7574386,36.815625 68.5065629,33.203125 L63.3317406,31.396875 C63.8707846,34 63.924689,35.221875 63.3317406,36.815625 C62.5231747,36.071875 61.7146087,34.53125 61.0677559,32.19375 L58.5342492,40.375 C60.0435723,39.3125 61.2294691,38.675 62.5770791,38.621875 C60.2052855,43.615625 57.1866392,44.94375 55.2460809,44.571875 C52.9281918,44.146875 51.8501038,42.128125 52.2274346,40.375 C52.7664786,37.878125 55.2999853,37.240625 56.5397865,40.109375 C58.8576756,35.4875 54.9226545,34.053125 52.4430522,35.434375 C56.2702645,31.609375 56.7014996,28.2625 53.5750445,24.225 C49.2626927,27.465625 49.2087883,30.759375 51.1493466,35.275 C48.6158399,32.40625 44.6269144,33.946875 46.0284288,38.56875 C47.8611783,35.80625 50.2868762,37.50625 49.9095455,40.215625 C49.5861191,42.5 46.459664,44.359375 42.6324517,44.040625 C37.0802986,43.5625 36.7568723,39.790625 36.5951591,36.709375 C37.942769,36.44375 40.4223713,37.665625 42.5246429,40.5875 L43.2254001,31.875 C41.0153197,34.2125 38.9130482,34.690625 36.5951591,34.74375 C37.3498206,32.40625 40.9075109,28.58125 40.9075109,28.58125 L35.7865931,28.58125 L29.9110137,28.58125 C29.9110137,28.58125 33.3608952,32.40625 34.1694611,34.74375 C31.9054764,34.690625 29.8571093,34.2125 27.5392201,31.875 L28.2938817,40.5875 C30.3961532,37.665625 32.8757556,36.496875 34.1694611,36.709375 C34.0077479,39.790625 33.6843215,43.509375 28.1860729,44.040625 C24.3049562,44.359375 21.2324055,42.5 20.9089791,40.215625 C20.5316484,37.559375 22.9573463,35.80625 24.7361914,38.56875 C26.1916102,33.946875 22.2565891,32.40625 19.669178,35.275 C21.6636407,30.759375 21.6097363,27.465625 17.1895757,24.225 C14.0631205,28.2625 14.4943557,31.609375 18.3754724,35.434375 C15.8419657,34.053125 11.960849,35.4875 14.2248337,40.109375 C15.4646349,37.1875 18.052046,37.878125 18.59109,40.375 C18.9684208,42.128125 17.8903328,44.146875 15.5185393,44.571875 C13.6318854,44.94375 10.6671435,43.615625 8.24144553,38.621875 C9.58905549,38.675 10.7749522,39.3125 12.2842754,40.375 L9.75076868,32.19375 C9.1039159,34.53125 8.29534992,36.01875 7.43287955,36.815625 C6.83993117,35.221875 6.94773997,34 7.43287955,31.396875 L2.31196171,33.203125 C5.00718163,36.86875 7.64849714,42.075 9.85857748,51 C17.8364284,49.884375 26.4611322,49.3 35.5709755,49.3 Z" id="Shape"></path>
                                </g>
                            </g>
                        </g>
                    </g>
                </g>
                <g id="Group" transform="translate(366.000000, 131.000000)">
                    <g id="002-magnifying-glass" fill="#000000" fill-rule="nonzero">
                        <path d="M527.461224,435.691429 L399.083265,322.94 C430.905306,288.865714 450.085714,245.22 450.085714,197.65 C450.085714,88.5357143 349.279592,0 225.042857,0 C100.697143,0 0,88.5357143 0,197.65 C0,306.764286 100.697143,395.3 225.042857,395.3 C279.205714,395.3 328.791429,378.55 367.588163,350.601429 L495.966122,463.257143 C504.68449,470.914286 518.742857,470.914286 527.461224,463.257143 C536.179592,455.695714 536.179592,443.252857 527.461224,435.691429 Z M225.042857,355.961429 C125.54449,355.961429 44.6816327,284.941429 44.6816327,197.65 C44.6816327,110.358571 125.54449,39.2428571 225.042857,39.2428571 C324.432245,39.2428571 405.404082,110.358571 405.404082,197.65 C405.404082,284.941429 324.432245,355.961429 225.042857,355.961429 Z" id="Shape"></path>
                    </g>
                    <g id="div-id=&quot;skiplink-con" transform="translate(37.533546, 31.466454)">
                        <mask id="mask-2" fill="white">
                            <use xlink:href="#path-1"></use>
                        </mask>
                        <use id="Mask" fill="#FFFFFF" fill-rule="nonzero" xlink:href="#path-1"></use>
                        <text mask="url(#mask-2)" font-family="Helvetica" font-size="18" font-weight="normal">
                            <tspan x="11.942492" y="-361.095847" fill="#000000">div id="skiplink-container"&gt;</tspan>
                            <tspan x="11.942492" y="-339.095847" fill="#000000">      &lt;div&gt;</tspan>
                            <tspan x="11.942492" y="-317.095847" fill="#000000">        &lt;a href="#content" class="skiplink"&gt;Skip to main content&lt;/a&gt;</tspan>
                            <tspan x="11.942492" y="-295.095847" fill="#000000">      &lt;/div&gt;</tspan>
                            <tspan x="11.942492" y="-273.095847" fill="#000000">    &lt;/div&gt;</tspan>
                            <tspan x="11.942492" y="-251.095847" fill="#000000"></tspan>
                            <tspan x="11.942492" y="-229.095847" fill="#000000">    &lt;div id="global-cookie-message"&gt;</tspan>
                            <tspan x="11.942492" y="-207.095847" fill="#000000">        &lt;</tspan>
                            <tspan x="62.4620233" y="-207.095847" fill="#FB0B6C">p</tspan>
                            <tspan x="72.4727655" y="-207.095847" fill="#000000">&gt;</tspan>
                            <tspan x="82.9844842" y="-207.095847" fill="#DF9A1F">GOV.UK uses cookies to make the site simpler. &lt;a href="https://www.gov.uk/help/cookies"&gt;Find </tspan>
                            <tspan x="11.942492" y="-185.095847" fill="#DF9A1F">out more about cookies</tspan>
                            <tspan x="199.052844" y="-185.095847" fill="#000000">&lt;/a&gt;&lt;/p&gt;</tspan>
                            <tspan x="11.942492" y="-163.095847" fill="#000000">    &lt;/</tspan>
                            <tspan x="47.4590936" y="-163.095847" fill="#FB0B6C">div</tspan>
                            <tspan x="70.4688592" y="-163.095847" fill="#000000">&gt;</tspan>
                            <tspan x="11.942492" y="-141.095847" fill="#000000"></tspan>
                            <tspan x="11.942492" y="-119.095847" fill="#000000">    &lt;</tspan>
                            <tspan x="42.458117" y="-119.095847" fill="#FB0B6C">header</tspan>
                            <tspan x="98.5059686" y="-119.095847" fill="#000000"> </tspan>
                            <tspan x="103.506945" y="-119.095847" fill="#A4E400">role</tspan>
                            <tspan x="133.521594" y="-119.095847" fill="#000000">=</tspan>
                            <tspan x="144.033312" y="-119.095847" fill="#DF9A1F">"banner" id="global-header" class=""</tspan>
                            <tspan x="434.546984" y="-119.095847" fill="#000000">&gt;</tspan>
                            <tspan x="11.942492" y="-97.0958466" fill="#000000">      &lt;</tspan>
                            <tspan x="52.4600701" y="-97.0958466" fill="#F8196E">div</tspan>
                            <tspan x="75.4698358" y="-97.0958466" fill="#000000"> </tspan>
                            <tspan x="80.4708123" y="-97.0958466" fill="#A2E600">class</tspan>
                            <tspan x="121.480578" y="-97.0958466" fill="#000000">=</tspan>
                            <tspan x="131.992297" y="-97.0958466" fill="#DF9A1F">"header-wrapper"</tspan>
                            <tspan x="271.843859" y="-97.0958466" fill="#000000">&gt;</tspan>
                            <tspan x="11.942492" y="-75.0958466" fill="#000000">        &lt;</tspan>
                            <tspan x="62.4620233" y="-75.0958466" fill="#FB0B6C">div</tspan>
                            <tspan x="85.4717889" y="-75.0958466" fill="#000000"> </tspan>
                            <tspan x="90.4727655" y="-75.0958466" fill="#A2E600">class</tspan>
                            <tspan x="131.482531" y="-75.0958466" fill="#000000">=</tspan>
                            <tspan x="141.99425" y="-75.0958466" fill="#DF9A1F">"header-global"</tspan>
                            <tspan x="264.856555" y="-75.0958466" fill="#000000">&gt;</tspan>
                            <tspan x="11.942492" y="-53.0958466" fill="#000000">          &lt;</tspan>
                            <tspan x="72.4639764" y="-53.0958466" fill="#FB0B6C">div</tspan>
                            <tspan x="95.473742" y="-53.0958466" fill="#000000"> </tspan>
                            <tspan x="100.474719" y="-53.0958466" fill="#A2E600">class</tspan>
                            <tspan x="141.484484" y="-53.0958466" fill="#000000">=</tspan>
                            <tspan x="151.996203" y="-53.0958466" fill="#DF9A1F">"header-logo"</tspan>
                            <tspan x="260.848742" y="-53.0958466" fill="#000000">&gt;</tspan>
                            <tspan x="11.942492" y="-31.0958466" fill="#000000">            &lt;</tspan>
                            <tspan x="82.4659295" y="-31.0958466" fill="#FB0B6C">a</tspan>
                            <tspan x="92.4766717" y="-31.0958466" fill="#000000"> </tspan>
                            <tspan x="97.4776483" y="-31.0958466" fill="#A2E600">href</tspan>
                            <tspan x="128.49425" y="-31.0958466" fill="#000000">=</tspan>
                            <tspan x="139.005969" y="-31.0958466" fill="#DF9A1F">"https://www.gov.uk" title="Go to the GOV.U" </tspan>
                            <tspan x="497.239367" y="-31.0958466" fill="#000000">&gt;</tspan>
                            <tspan x="11.942492" y="-9.09584665" fill="#000000">              &lt;</tspan>
                            <tspan x="92.4678826" y="-9.09584665" fill="#FB0B6C">img</tspan>
                            <tspan x="121.471789" y="-9.09584665" fill="#000000"> </tspan>
                            <tspan x="126.472765" y="-9.09584665" fill="#A2E600">src</tspan>
                            <tspan x="150.466906" y="-9.09584665" fill="#000000">="</tspan>
                            <tspan x="167.368273" y="-9.09584665" fill="#DF9A1F">https://assets.publishing.service.gov.uk/static/</tspan>
                            <tspan x="11.942492" y="12.9041534" fill="#DF9A1F">gov.uk_logotype_crown_invert_trans-203e1db49d3eff430d7dc450ce723c1002542fe1d2bce661b6d8571f1</tspan>
                            <tspan x="11.942492" y="34.9041534" fill="#DF9A1F">4c1043c.png"</tspan>
                            <tspan x="121.419055" y="34.9041534" fill="#000000">&lt;/div&gt;</tspan>
                        </text>
                    </g>
                </g>
                <g id="Oval-3" transform="translate(403.000000, 162.000000)">
                    <mask id="mask-4" fill="white">
                        <use xlink:href="#path-3"></use>
                    </mask>
                    <use id="Mask" fill="#FFFFFF" fill-rule="nonzero" xlink:href="#path-3"></use>
                    <ellipse fill-opacity="0.766502491" fill="#1610D3" fill-rule="nonzero" mask="url(#mask-4)" cx="283.5" cy="85.5538462" rx="82.8692308" ry="72.7846154"></ellipse>
                </g>
                <path d="M519.131031,487.055378 C567.23476,510.6873 627,444.73389 627,392.527689 C627,340.321488 578.705418,298 519.131031,298 C459.556645,298 392.312108,340.321488 411.262062,392.527689 C430.212016,444.73389 471.027302,463.423456 519.131031,487.055378 Z" id="Oval-4" fill="#F75252" fill-rule="nonzero"></path>
                <ellipse id="Oval-2" fill="#FFFFFF" fill-rule="nonzero" cx="519.5" cy="393" rx="52.5" ry="46"></ellipse>
                <ellipse id="Oval-8" fill="#E86464" fill-rule="nonzero" cx="517" cy="393.5" rx="14" ry="12.5"></ellipse>
                <g id="settings" transform="translate(391.000000, 152.000000)" fill-rule="nonzero">
                    <path d="M107.66065,123.963899 C116.134604,123.963899 123.166493,116.296029 128.756318,100.960289 C144.280576,103.963705 154.954823,103.963705 160.779057,100.960289 C168.267096,97.0988888 168.267096,85.6264752 160.779057,66.543048 C179.19711,60.6549935 188.406137,55.0876959 188.406137,49.8411552 L164.400722,31.3104693 C167.002375,18.196522 165.795154,10.8321968 160.779057,9.21749371 C153.521713,6.88132334 55.0910813,47.9705509 37.8267148,80.5126354 C33.1434498,89.3402518 43.4875416,91.1178758 52.3754513,97.765343 C57.1745044,101.354663 68.8134936,101.354663 87.2924188,97.765343 C95.768407,115.231047 102.557817,123.963899 107.66065,123.963899 Z" id="Oval-5" fill="#018B04"></path>
                    <ellipse id="Oval-7" fill="#FFFFFF" cx="107.66065" cy="47.2851986" rx="20.368231" ry="17.8916968"></ellipse>
                    <path d="M376.812274,177 C365.693997,177 354.539966,188.501805 343.350181,211.505415 L296.066787,207.032491 L296.066787,242.176895 C293.737584,248.800649 291.555274,253.060577 289.519856,254.956679 C276.4564,267.125992 266.241877,271.753735 266.241877,276.043321 C266.241877,281.619948 281.14813,280.74404 296.066787,288.823105 C299.298196,290.573045 303.420338,300.796872 308.433213,319.494585 C321.399287,314.177491 330.128529,306.935614 334.620939,297.768953 C339.113348,288.602292 342.023095,272.095072 343.350181,248.247292 C363.314208,242.552463 376.65055,237.334052 383.359206,232.592058 C390.067862,227.850064 392.250172,222.099161 389.906137,215.33935 C389.23057,189.779783 384.865949,177 376.812274,177 Z" id="Oval-9" fill="#EDDE20"></path>
                    <path d="M127.301444,265.819495 C142.145156,265.819495 154.216606,255.215789 154.216606,242.176895 C154.216606,229.138002 142.145156,218.534296 127.301444,218.534296 C112.457732,218.534296 100.386282,229.138002 100.386282,242.176895 C100.386282,255.215789 112.457732,265.819495 127.301444,265.819495 Z M127.301444,230.355596 C134.7233,230.355596 140.759025,235.657449 140.759025,242.176895 C140.759025,248.696342 134.7233,253.998195 127.301444,253.998195 C119.879588,253.998195 113.843863,248.696342 113.843863,242.176895 C113.843863,235.657449 119.879588,230.355596 127.301444,230.355596 Z" id="Shape" fill="#000000"></path>
                    <path d="M294.611913,71.566787 C279.768201,71.566787 267.696751,82.1704928 267.696751,95.2093863 C267.696751,108.24828 279.768201,118.851986 294.611913,118.851986 C309.455625,118.851986 321.527076,108.24828 321.527076,95.2093863 C321.527076,82.1704928 309.455625,71.566787 294.611913,71.566787 Z M294.611913,107.030686 C287.190057,107.030686 281.154332,101.728833 281.154332,95.2093863 C281.154332,88.6899395 287.190057,83.3880866 294.611913,83.3880866 C302.033769,83.3880866 308.069495,88.6899395 308.069495,95.2093863 C308.069495,101.728833 302.033769,107.030686 294.611913,107.030686 Z" id="Shape" fill="#000000"></path>
                    <path d="M126.574007,288.823105 C156.254703,288.823105 180.404332,267.609782 180.404332,241.537906 C180.404332,215.46603 156.254703,194.252708 126.574007,194.252708 C96.8933118,194.252708 72.7436823,215.46603 72.7436823,241.537906 C72.7436823,267.609782 96.8933118,288.823105 126.574007,288.823105 Z M126.574007,206.074007 C148.839575,206.074007 166.946751,221.979566 166.946751,241.537906 C166.946751,261.096246 148.839575,277.001805 126.574007,277.001805 C104.308439,277.001805 86.2012635,261.096246 86.2012635,241.537906 C86.2012635,221.979566 104.308439,206.074007 126.574007,206.074007 Z" id="Shape" fill="#000000"></path>
                    <path d="M397.53935,217.7867 C398.34535,214.7954 399.064033,211.7805 399.688683,208.7361 C399.722267,208.5768 399.769283,208.4234 399.802867,208.2641 C399.809583,208.2287 399.802867,208.1933 399.809583,208.1579 C401.864883,198.0276 403,187.6318 403,177 C403,152.6566 397.371433,129.4519 387.209117,108.324 C387.168817,108.2296 387.168817,108.1234 387.1218,108.029 C379.32375,91.863 368.72485,76.8534 355.936317,63.4781 C348.41365,55.5957 340.125283,48.3033 331.178683,41.6776 C315.837817,30.2965 298.60285,20.8624 280.017833,13.9535 C279.917083,13.9122 279.8029,13.9122 279.695433,13.8827 C255.64305,4.9442 229.212967,0 201.5,0 C189.826433,0 178.394667,0.9263 167.258433,2.6078 C167.238283,2.6078 167.218133,2.6078 167.2047,2.6078 C167.016633,2.6373 166.828567,2.6727 166.633783,2.7081 C163.913533,3.127 161.206717,3.5813 158.526767,4.0946 C158.379,4.1241 158.231233,4.1595 158.07675,4.189 C147.350233,6.2658 136.952833,9.1037 126.938283,12.6201 C126.0181,12.9446 125.084483,13.2455 124.171017,13.5818 C122.666483,14.1305 121.195533,14.7264 119.71115,15.3046 C118.26035,15.871 116.80955,16.4315 115.372183,17.0274 C114.203483,17.5171 113.048217,18.0304 111.89295,18.5378 C111.57055,18.6794 111.24815,18.8151 110.92575,18.9567 C110.838433,18.9921 110.737683,18.9921 110.64365,19.0334 C110.24065,19.2104 109.8578,19.411 109.4548,19.5939 C108.514467,20.0187 107.587567,20.4612 106.65395,20.8978 C105.8278,21.2872 105.008367,21.6825 104.188933,22.0837 C103.235167,22.5498 102.267967,22.9923 101.320917,23.4702 C100.199233,24.0366 99.1044167,24.6325 97.9961667,25.2166 C97.4185333,25.5234 96.8476167,25.8243 96.2767,26.137 C93.9393,27.3937 91.6354833,28.6976 89.3518167,30.0369 C89.1167333,30.1726 88.88165,30.3083 88.6532833,30.4499 C87.4577167,31.1579 86.26215,31.86 85.0867333,32.5916 C84.93225,32.686 84.7777667,32.7922 84.6232833,32.8925 C82.1179667,34.4619 79.65295,36.0844 77.2282333,37.7541 C77.1476333,37.8072 77.0670333,37.8544 76.99315,37.9075 C76.973,37.9193 76.9662833,37.937 76.95285,37.9488 C65.91065,45.5775 55.71475,54.2269 46.60695,63.8321 C46.48605,63.956 46.4256,64.1094 46.32485,64.2451 C17.4028833,94.8838 0,134.1896 0,177 C0,194.6705 3.00235,211.7333 8.51673333,227.8462 C8.53016667,227.8875 8.51001667,227.9347 8.52345,227.976 C8.59061667,228.1648 8.67121667,228.3418 8.73166667,228.5306 C9.84663333,231.7402 11.0422,234.9203 12.3586667,238.0473 C12.8221167,239.1624 13.3527333,240.248 13.84305,241.3513 C14.6557667,243.1803 15.4752,245.0034 16.3550833,246.797 C17.2551167,248.6437 18.2088833,250.455 19.1760833,252.2663 C19.6328167,253.11 20.0828333,253.9537 20.553,254.7856 C40.2194,290.1974 72.6944833,318.718 113.014633,335.9814 C113.914667,336.3708 114.828133,336.7484 115.734883,337.126 C117.8372,337.9933 119.946233,338.8488 122.08885,339.6512 C124.036683,340.3887 126.011383,341.0672 127.9928,341.7516 C129.34285,342.2177 130.67275,342.7192 132.04295,343.1558 C135.5692,344.2945 139.1559,345.3388 142.769467,346.3064 C143.00455,346.3713 143.2262,346.448 143.468,346.5129 C143.5486,346.5365 143.635917,346.5247 143.716517,346.5424 C162.032867,351.3745 181.423883,354 201.5,354 C235.04975,354 266.68525,346.7194 294.539267,333.9282 C294.720617,333.8633 294.908683,333.8279 295.090033,333.7453 C295.58035,333.5211 296.037083,333.2615 296.5274,333.0373 C298.15955,332.2644 299.758117,331.4502 301.3634,330.6419 C302.867933,329.8867 304.392617,329.1551 305.870283,328.3645 C308.704717,326.8541 311.492133,325.2788 314.232533,323.6445 C315.40795,322.9483 316.53635,322.199 317.691617,321.4792 C319.51855,320.3405 321.338767,319.2018 323.118683,318.01 C324.119467,317.3374 325.1001,316.6471 326.08745,315.9627 C328.068867,314.5939 330.0167,313.1956 331.937667,311.7619 C332.65635,311.225 333.368317,310.6822 334.073567,310.1335 C336.410967,308.3399 338.694633,306.4932 340.931283,304.6052 C341.193233,304.381 341.4619,304.1686 341.72385,303.9385 C344.961283,301.1773 348.118117,298.3394 351.140617,295.3953 C351.241367,295.3068 351.389133,295.2714 351.483167,295.1711 C366.4076,280.5686 378.309533,264.0958 386.98075,246.1421 C387.296433,245.4931 387.578533,244.8323 387.880783,244.1833 C388.606183,242.6375 389.345017,241.1035 390.0234,239.5341 C390.050267,239.4751 390.036833,239.4102 390.056983,239.3512 C392.978733,232.5544 395.4236,225.557 397.384867,218.3944 C397.4386,218.1938 397.485617,217.9873 397.53935,217.7867 Z M329.385333,297.9795 C327.706167,299.3542 325.979983,300.6876 324.240367,302.0092 C323.582133,302.5107 322.930617,303.024 322.25895,303.5196 C320.895467,304.5344 319.491683,305.5079 318.0879,306.4814 C317.013233,307.2307 315.952,307.9859 314.857183,308.7116 C313.782517,309.4255 312.6877,310.1158 311.592883,310.812 C310.57195,311.461 309.551017,312.1041 308.51665,312.7354 C309.960733,307.0773 309.356233,301.0888 306.615833,295.5723 C302.25,286.7813 293.195933,280.663 282.408967,279.2057 L275.383333,278.2499 L275.383333,267.7656 L282.0597,266.6446 C292.786217,264.8274 301.571617,258.4141 305.561317,249.4874 C309.551017,240.5607 308.080067,230.6133 301.618633,222.8725 L297.414,217.8398 L305.85685,210.4176 L314.4609,215.5447 C323.300033,220.8075 334.46985,221.7987 344.336633,218.2115 C354.203417,214.6243 361.302933,206.9779 363.317933,197.7621 L365.2792,188.8 L377.214717,188.8 L378.2961,194.9714 C379.24315,200.3699 381.855933,205.2315 385.93295,209.214 C384.294083,216.471 382.057433,223.5864 379.330467,230.5307 C377.1677,230.2416 374.978067,230.1 372.775,230.1 C348.702467,230.1 329.116667,247.3044 329.116667,268.45 C329.116667,276.6274 332.072,284.4095 337.458767,290.9172 C335.07435,293.1179 332.642917,295.2773 330.11745,297.36 C329.87565,297.5665 329.63385,297.7789 329.385333,297.9795 Z M371.6063,247.2336 C364.943367,259.6059 356.527383,271.2112 346.647167,281.784 C343.98065,277.772 342.55,273.2054 342.55,268.45 C342.55,253.8121 356.11095,241.9 372.775,241.9 C373.285467,241.9 373.789217,241.9118 374.292967,241.9354 C373.533983,243.4812 372.781717,245.027 371.975717,246.5492 C371.854817,246.7793 371.7272,247.0035 371.6063,247.2336 Z M295.533333,165.2 C251.08915,165.2 214.933333,133.4403 214.933333,94.4 C214.933333,61.7966 240.745483,33.1698 276.6192,25.5942 C289.703267,30.621 302.021633,36.9045 313.359367,44.2913 C313.581017,44.4388 313.809383,44.5745 314.031033,44.722 C315.878117,45.9374 317.671467,47.2 319.464817,48.4744 C320.04245,48.8815 320.640233,49.2768 321.21115,49.6898 C322.554483,50.6692 323.857517,51.6899 325.167267,52.6988 C326.121033,53.4304 327.09495,54.1384 328.035283,54.8936 C328.532317,55.2948 329.0092,55.7196 329.506233,56.1208 C332.9183,58.9115 336.209467,61.8025 339.379733,64.8056 C339.74915,65.1537 340.132,65.4841 340.501417,65.8381 C341.388017,66.6936 342.234317,67.5904 343.100767,68.4636 C344.215733,69.5846 345.35085,70.6879 346.432233,71.8384 C346.92255,72.3576 347.386,72.9004 347.8696,73.4314 C349.30025,74.989 350.724183,76.5466 352.087667,78.1455 C352.275733,78.3638 352.450367,78.5939 352.638433,78.8181 C361.034267,88.7596 368.16065,99.5625 373.876533,111.0321 C365.232183,142.5322 332.649633,165.2 295.533333,165.2 Z M156.014733,16.7206 C154.960217,21.1161 155.363217,25.7476 157.31105,30.1018 C160.669383,37.6184 168.07115,43.0228 177.105067,44.5509 L181.35,45.2648 L181.35,51.6722 L176.869983,52.274 C167.782333,53.5012 160.158917,58.6519 156.478183,66.0564 C152.79745,73.4668 153.677333,81.8861 158.84245,88.5708 L161.267167,91.7214 L156.108767,96.2467 L154.919917,95.4797 C147.3368,90.5945 137.6245,89.562 128.933133,92.7244 C120.248483,95.8868 114.203483,102.6541 112.77955,110.8079 L112.551183,112.1 L105.2636,112.1 L104.444167,108.3712 C102.711267,100.4298 96.5588,93.9339 87.99505,90.978 C79.4313,88.028 69.8936333,89.1254 62.4784333,93.8926 L58.8245667,96.2467 L53.6661667,91.7273 L56.0908833,88.5767 C60.6380667,82.6767 61.8067667,75.5436 59.5096667,68.8589 C60.1813333,68.1804 60.8395667,67.4901 61.51795,66.8234 C63.2307,65.1419 64.9971833,63.5076 66.7838167,61.8969 C68.6309,60.2272 70.525,58.5988 72.4459667,56.9999 C73.3392833,56.2624 74.25275,55.5426 75.1595,54.8228 C79.0148667,67.378 91.9713167,76.7 107.466667,76.7 C125.984517,76.7 141.05,63.4663 141.05,47.2 C141.05,38.1907 136.39535,30.0664 128.912983,24.6207 C133.023583,23.1103 137.208067,21.7415 141.439567,20.4907 C141.87615,20.3609 142.306017,20.2311 142.7426,20.1013 C147.11515,18.8387 151.534717,17.7 156.014733,16.7206 Z M87.3838333,45.8548 C87.9278833,45.489 88.4450667,45.1055 88.9958333,44.7456 C91.6959333,42.9756 94.48335,41.3 97.2909167,39.648 C98.6476833,38.8515 99.9843,38.0255 101.361217,37.2644 C101.53585,37.1641 101.710483,37.0638 101.885117,36.9694 C104.726267,35.4059 107.648017,33.9663 110.576483,32.5444 C111.859367,31.919 113.115383,31.2464 114.4117,30.6505 C122.297067,33.1757 127.616667,39.707 127.616667,47.2 C127.616667,56.9586 118.576033,64.9 107.466667,64.9 C96.3573,64.9 87.3166667,56.9586 87.3166667,47.2 C87.3166667,46.7575 87.3435333,46.3091 87.3838333,45.8548 Z M88.1025167,154.0844 C88.2973,154.0313 88.4988,154.0549 88.6935833,153.9841 C88.9286667,153.9015 89.0898667,153.7363 89.3115167,153.636 C101.2336,149.6771 114.143033,147.5 127.616667,147.5 C186.8711,147.5 235.083333,189.8502 235.083333,241.9 C235.083333,255.4228 231.8056,268.2848 225.988967,279.9491 C225.928517,280.0494 225.82105,280.1143 225.767317,280.2205 C225.70015,280.3503 225.7203,280.4919 225.666567,280.6217 C211.447383,308.5405 182.229883,329.3557 145.86585,334.8191 C145.8457,334.8132 145.832267,334.8132 145.812117,334.8073 C142.5008,333.9105 139.249933,332.9075 136.019217,331.8573 C134.507967,331.3676 133.023583,330.8248 131.532483,330.2997 C129.98765,329.7569 128.449533,329.2023 126.92485,328.63 C124.93,327.8689 122.941867,327.0842 120.9806,326.2641 C120.261917,325.9632 119.54995,325.6505 118.831267,325.3437 C81.4194333,309.1895 50.9727833,282.4448 32.5959833,249.5818 C32.2534333,248.9682 31.9108833,248.3546 31.57505,247.7351 C30.6347167,246.0064 29.7414,244.2541 28.8682333,242.49 C28.21,241.1507 27.58535,239.7996 26.9674167,238.4426 C26.3696333,237.1387 25.7584167,235.8348 25.2009333,234.5132 C24.0053667,231.6694 22.8635333,228.802 21.8358833,225.8874 C21.8358833,225.8756 21.8291667,225.8697 21.8291667,225.8579 C28.3443333,192.4108 54.0288667,165.8372 88.1025167,154.0844 Z M172.7661,340.2707 C200.143233,330.7009 222.147033,312.8711 235.2311,290.3685 L245.782983,294.4867 C246.6763,294.8407 247.6032,295 248.516667,295 C251.08915,295 253.54745,293.6902 254.662417,291.4954 C256.16695,288.5159 254.642267,285.029 251.25035,283.7074 L240.745483,279.6069 C245.76955,267.8718 248.516667,255.1573 248.516667,241.9 C248.516667,230.4068 246.360617,219.3561 242.498533,208.9839 L250.9481,206.0988 C254.407183,204.9188 256.119933,201.5027 254.7766,198.4642 C253.433267,195.4257 249.55775,193.9094 246.085233,195.1071 L237.575217,198.0099 C226.26435,176.2389 206.873333,158.415 182.733633,147.4941 L187.489033,138.0954 C188.993567,135.1159 187.468883,131.629 184.076967,130.3074 C180.68505,128.9917 176.722217,130.331 175.210967,133.3046 L170.44885,142.7151 C157.116267,138.2547 142.715733,135.7 127.616667,135.7 C114.5326,135.7 101.965717,137.5998 90.13095,140.9569 L86.8599333,133.5642 C85.5166,130.5257 81.6142167,129.0153 78.1685667,130.2071 C74.7094833,131.3812 72.9967333,134.8032 74.3400667,137.8417 L77.5909333,145.1813 C49.5555667,156.3146 27.2495167,176.5988 15.6296833,202.2461 C14.1856,194.0097 13.4333333,185.5786 13.4333333,177 C13.4333333,146.9218 22.6754667,118.7198 38.7350167,94.4 C39.0574167,95.2142 39.51415,95.9871 40.2462667,96.6243 L53.3975,108.1706 C55.7416167,110.2356 59.4357833,110.4834 62.1157333,108.7606 L70.4175333,103.4152 C74.1587167,101.008 78.76635,100.477 83.0851667,101.9697 C87.3972667,103.4565 90.37275,106.6012 91.2526333,110.6073 L93.1198667,119.121 C93.7310833,121.894 96.49835,123.9 99.7156333,123.9 L118.314083,123.9 C121.632117,123.9 124.4464,121.776 124.95015,118.8968 L126.051683,112.6133 C126.756933,108.5541 129.759283,105.2029 134.071383,103.6394 C138.383483,102.0523 143.20605,102.5774 146.9741,105.0023 L152.810883,108.7606 C155.484117,110.4834 159.185,110.2356 161.529117,108.1706 L174.68035,96.6243 C176.9573,94.6242 177.29985,91.4854 175.493067,89.1431 L169.951817,81.9569 C167.352467,78.5821 166.9226,74.5052 168.7764,70.7705 C170.6302,67.0417 174.31765,64.546 178.898417,63.9324 L189.074167,62.5577 C192.365333,62.1152 194.783333,59.6372 194.783333,56.7285 L194.783333,40.3855 C194.783333,37.5594 192.499667,35.1227 189.3294,34.5917 L179.63725,32.9574 C175.08335,32.1904 171.503367,29.5767 169.810767,25.783 C168.118167,21.9952 168.71595,17.936 171.449633,14.6615 L172.154883,13.8237 C181.719417,12.5021 191.519033,11.8 201.5,11.8 C220.817133,11.8 239.455883,14.3783 257.01325,19.1514 C248.617417,22.4849 240.879817,26.8214 234.048967,32.0429 L229.04505,27.6474 C226.418833,25.3405 222.1739,25.3405 219.547683,27.6474 C216.921467,29.9543 216.921467,33.6831 219.547683,35.99 L224.598617,40.4268 C211.581717,53.6428 203.286633,70.3929 201.795533,88.4941 L194.783333,88.4941 C191.075733,88.4941 188.066667,91.1314 188.066667,94.3941 C188.066667,97.6568 191.075733,100.2941 194.783333,100.2941 L201.84255,100.2941 C203.326933,118.6313 211.6153,135.3047 224.5516,148.4027 L219.547683,152.7982 C216.921467,155.1051 216.921467,158.8339 219.547683,161.1408 C220.857433,162.2913 222.5769,162.8695 224.296367,162.8695 C226.015833,162.8695 227.7353,162.2913 229.04505,161.1408 L234.048967,156.7453 C248.959967,168.1087 267.947983,175.3893 288.816667,176.6932 L288.816667,182.9 C288.816667,186.1627 291.825733,188.8 295.533333,188.8 C299.240933,188.8 302.25,186.1627 302.25,182.9 L302.25,176.7404 C322.856733,175.4306 341.92535,168.1441 356.970683,156.7099 L362.021617,161.1467 C363.331367,162.2972 365.050833,162.8754 366.7703,162.8754 C368.489767,162.8754 370.209233,162.2972 371.518983,161.1467 C374.1452,158.8398 374.1452,155.111 371.518983,152.8041 L366.515067,148.4086 C372.459317,142.4083 377.396067,135.6115 381.1977,128.2365 C386.631483,143.6591 389.566667,160.0316 389.566667,177 C389.566667,178.5222 389.47935,180.0267 389.432333,181.543 C388.71365,178.9175 386.100867,177 382.977617,177 L359.731233,177 C356.51395,177 353.739967,179.006 353.135467,181.7908 L350.1264,195.5437 C348.944267,200.9245 344.961283,205.2197 339.198383,207.3142 C333.4422,209.4087 327.162117,208.86 321.997,205.7743 L308.79875,197.9155 C306.13895,196.3284 302.558967,196.6352 300.282017,198.6294 L283.846333,213.0726 C281.502217,215.1317 281.220117,218.3826 283.174667,220.7367 L290.78465,229.8522 C294.505683,234.3067 295.351983,240.0356 293.054883,245.1745 C290.757783,250.3134 285.700133,254.0068 279.527517,255.0511 L267.403933,257.0984 C264.233667,257.6294 261.95,260.0602 261.95,262.8922 L261.95,283.318 C261.95,286.2267 264.368,288.7047 267.645733,289.1472 L280.3671,290.8641 C286.580017,291.7078 291.79215,295.2242 294.3109,300.2923 C296.822933,305.3486 296.218433,311.107 292.692183,315.6795 L285.8076,324.6062 C260.425317,335.8339 231.798883,342.2 201.5,342.2 C191.733967,342.2 182.13585,341.5392 172.7661,340.2707 Z" id="Shape" fill="#000000"></path>
                </g>
                <ellipse id="Oval-6" fill="#FFFFFF" fill-rule="nonzero" cx="685.5" cy="247.5" rx="15.5" ry="13.5"></ellipse>
            </g>
        </g>
    </g>
</svg>
